PathFileType	4	(X/Y/Z)	D:\Documents\Paper\paper_current\paper_step_1_data\data_step_3\marker\30DL\subject_01.tsv
DataRate	CameraRate	NumFrames	NumMarkers	Units	OrigDataRate	OrigDataStartFrame	OrigNumFrames
200	200	5	43	mm	200	4173	200
Frame#	Time	Top.Head			L.Acromium			R.Acromium			Sternum			L.ASIS			R.ASIS			V.Sacral			R.Knee.Lat			R.Knee.Med			L.Knee.Lat			L.Knee.Med			L.Ankle.Lat			L.Toe.Tip			R.Heel			R.Ankle.Med			R.Ankle.Lat			L.Toe.Med			L.Toe.Lat			L.Heel			L.Ankle.Med			L.Shank1			L.Shank2			R.Toe.Tip			R.Toe.Med			R.Toe.Lat			L.Thigh2			L.Thigh1			L.Thigh3			R.Thigh3			R.Thigh1			R.Thigh2			R.Shank1			R.Shank2			R.Shank3			L.Shank3			L.Shank4			R.Shank4			L.Thigh4			R.Thigh4			R.Heel.Lat			R.Heel.Med			L.Heel.Lat			L.Heel.Med		
		X1	Y1	Z1	X2	Y2	Z2	X3	Y3	Z3	X4	Y4	Z4	X5	Y5	Z5	X6	Y6	Z6	X7	Y7	Z7	X8	Y8	Z8	X9	Y9	Z9	X10	Y10	Z10	X11	Y11	Z11	X12	Y12	Z12	X13	Y13	Z13	X14	Y14	Z14	X15	Y15	Z15	X16	Y16	Z16	X17	Y17	Z17	X18	Y18	Z18	X19	Y19	Z19	X20	Y20	Z20	X21	Y21	Z21	X22	Y22	Z22	X23	Y23	Z23	X24	Y24	Z24	X25	Y25	Z25	X26	Y26	Z26	X27	Y27	Z27	X28	Y28	Z28	X29	Y29	Z29	X30	Y30	Z30	X31	Y31	Z31	X32	Y32	Z32	X33	Y33	Z33	X34	Y34	Z34	X35	Y35	Z35	X36	Y36	Z36	X37	Y37	Z37	X38	Y38	Z38	X39	Y39	Z39	X40	Y40	Z40	X41	Y41	Z41	X42	Y42	Z42	X43	Y43	Z43
4771	23.85	-23.043	1928.684	309.907	-208.454	1682.24	138.563	-251.394	1698.725	463.238	-119.103	1627.236	321.214	-77.472	1188.093	224.673	-108.498	1226.199	455.968	-259.888	1228.356	322.619	-35.107	784.5	532.128	-18.559	766.643	419.577	-178.305	741.012	236.022	-172.279	739.322	347.769	-255.223	374.336	300.586	-68.911	329.277	289.286	-9.225	350.07	511.723	85.966	433.032	489.09	49.108	417.501	570.04	-107.448	319.4	349.879	-158.275	322.166	257.968	-341.845	311.44	357.543	-240.316	388.075	386.048	-167.144	650.312	238.629	-175.091	567.46	239.115	262.711	386.515	582.05	214.904	373.527	524.897	165.995	352.156	618.085	-97.821	874.567	223.446	-94.775	955.792	205.384	-151.919	953.029	178.231	-119.877	938.035	530.179	-57.994	956.207	540.401	-29.831	877.976	536.238	20.077	713.1	563.658	38.145	628.769	574.844	-42.829	700.573	566.59	-229.845	655.092	224.476	-239.592	567.947	227.941	-25.227	619.581	576.687	-154.216	865.397	194.746	-88.568	858.021	525.935	24.273	343.343	569.734	62.861	349.09	476.644	-298.282	301.453	297.214	-271.24	306.666	398.375
4772	23.855	-22.569	1928.594	309.788	-207.945	1682.021	138.544	-250.664	1698.46	463.27	-118.41	1627.111	321.143	-76.485	1187.855	224.657	-107.481	1226.036	455.935	-258.878	1228.201	322.599	-34.13	784.369	532.152	-17.81	766.404	419.583	-177.583	740.862	236.08	-171.611	739.173	347.813	-255.145	374.313	300.69	-68.92	329.283	289.277	-8.981	349.953	512.202	86.204	432.649	489.188	49.615	417.214	570.241	-107.455	319.389	349.904	-158.273	322.159	257.979	-341.846	311.443	357.54	-240.278	388.055	386.068	-166.568	650.14	238.697	-174.64	567.306	239.189	263.248	385.914	581.479	215.232	372.995	524.531	166.621	351.728	617.891	-96.998	874.387	223.457	-93.899	955.608	205.384	-151.054	952.863	178.231	-118.851	937.977	530.185	-56.991	956.076	540.387	-28.827	877.828	536.224	21.036	712.907	563.668	39.002	628.585	574.838	-41.873	700.483	566.687	-229.278	654.971	224.536	-239.051	567.888	227.984	-24.358	619.54	576.856	-153.421	865.207	194.737	-87.522	857.891	526.005	24.668	343.12	570.05	62.945	348.775	476.852	-298.257	301.435	297.256	-271.242	306.668	398.373
4773	23.86	-22.085	1928.523	309.728	-207.424	1681.795	138.532	-249.924	1698.204	463.306	-117.707	1626.983	321.082	-75.458	1187.675	224.607	-106.465	1225.873	455.91	-257.862	1228.045	322.575	-33.173	784.226	532.167	-17.052	766.166	419.581	-176.85	740.718	236.141	-170.934	739.032	347.861	-255.061	374.293	300.797	-68.926	329.287	289.27	-8.786	349.828	512.615	86.453	432.256	489.261	50.077	416.92	570.407	-107.461	319.376	349.929	-158.272	322.153	257.989	-341.845	311.449	357.536	-240.237	388.036	386.089	-165.981	649.971	238.768	-174.18	567.152	239.268	263.722	385.253	580.944	215.506	372.421	524.175	167.165	351.25	617.693	-96.161	874.208	223.479	-93.006	955.365	205.414	-150.175	952.7	178.234	-117.809	937.889	530.243	-55.953	955.936	540.325	-27.868	877.666	536.189	21.967	712.755	563.607	39.825	628.337	574.781	-40.931	700.35	566.818	-228.692	654.924	224.575	-238.618	567.79	228.035	-23.513	619.454	576.983	-152.632	865.095	194.762	-86.626	857.712	526.005	25.028	342.952	570.325	62.995	348.454	477.019	-298.272	301.434	297.327	-271.243	306.671	398.37
4774	23.865	-21.598	1928.399	309.653	-206.891	1681.563	138.525	-249.172	1697.958	463.347	-116.993	1626.855	321.03	-74.473	1187.555	224.539	-105.45	1225.71	455.893	-256.838	1227.886	322.547	-32.24	784.069	532.171	-16.29	765.928	419.57	-176.107	740.579	236.204	-170.252	738.9	347.913	-254.975	374.274	300.905	-68.931	329.289	289.265	-8.635	349.694	512.964	86.712	431.853	489.31	50.501	416.62	570.538	-107.467	319.364	349.952	-158.27	322.149	257.998	-341.842	311.458	357.532	-240.192	388.017	386.111	-165.384	649.807	238.84	-173.715	567.001	239.349	264.139	384.537	580.447	215.734	371.804	523.835	167.631	350.729	617.493	-95.311	874.028	223.513	-92.164	955.261	205.405	-149.283	952.542	178.241	-116.812	937.776	530.328	-54.969	955.751	540.269	-26.904	877.54	536.156	22.909	712.527	563.558	40.638	628.116	574.788	-40.057	700.228	566.949	-228.06	654.867	224.613	-238.155	567.79	228.023	-22.75	619.293	577.107	-151.807	864.87	194.762	-85.664	857.557	525.991	25.318	342.678	570.538	63.017	348.129	477.147	-298.27	301.383	297.36	-271.243	306.676	398.368
4775	23.87	-21.062	1928.309	309.613	-206.344	1681.329	138.523	-248.408	1697.721	463.392	-116.27	1626.725	320.988	-73.345	1187.364	224.56	-104.432	1225.547	455.883	-255.806	1227.722	322.517	-31.335	783.896	532.165	-15.528	765.687	419.55	-175.355	740.448	236.268	-169.565	738.777	347.967	-254.889	374.255	301.012	-68.933	329.289	289.259	-8.52	349.554	513.253	86.98	431.441	489.336	50.892	416.316	570.634	-107.471	319.353	349.973	-158.268	322.147	258.006	-341.839	311.47	357.528	-240.145	387.999	386.132	-164.777	649.647	238.912	-173.244	566.853	239.431	264.504	383.769	579.99	215.922	371.145	523.514	168.025	350.17	617.296	-94.448	873.849	223.559	-91.224	955.064	205.447	-148.376	952.389	178.253	-115.851	937.576	530.272	-53.982	955.609	540.241	-25.953	877.281	536.072	23.812	712.223	563.503	41.404	627.807	574.756	-39.145	700.136	567.033	-227.463	654.808	224.625	-237.729	567.714	228.079	-22	619.178	577.232	-150.869	864.705	194.762	-84.836	857.451	525.964	25.566	342.409	570.725	63.021	347.799	477.238	-298.289	301.357	297.432	-271.242	306.683	398.365
